<?xml version="1.0" standalone="no"?>
<!DOCTYPE svg PUBLIC "-//W3C//DTD SVG 20010904//EN"
 "http://www.w3.org/TR/2001/REC-SVG-20010904/DTD/svg10.dtd">
<svg version="1.0" xmlns="http://www.w3.org/2000/svg"
 width="721.000000pt" height="935.000000pt" viewBox="0 0 721.000000 935.000000"
 preserveAspectRatio="xMidYMid meet">
<metadata>
Created by potrace 1.16, written by Peter Selinger 2001-2019
</metadata>
<g transform="translate(0.000000,935.000000) scale(0.100000,-0.100000)"
fill="#085041" stroke="none">
<path d="M3445 8423 c-18 -5 -240 -111 -690 -328 -332 -161 -479 -232 -610
-295 -71 -34 -217 -105 -323 -156 -107 -52 -195 -94 -197 -94 -1 0 -128 -61
-281 -136 -154 -75 -322 -156 -374 -181 -52 -25 -107 -57 -122 -71 -35 -32
-44 -78 -25 -124 13 -31 32 -44 151 -107 l136 -72 0 -277 c0 -152 -3 -286 -6
-297 -3 -12 -25 -31 -50 -44 -81 -43 -134 -128 -142 -227 -7 -95 4 -145 49
-215 l41 -63 -22 -75 c-13 -42 -53 -173 -90 -291 -37 -118 -84 -275 -106 -348
-35 -123 -37 -136 -23 -160 8 -15 30 -35 49 -44 61 -30 222 -50 400 -50 198 0
237 10 263 63 17 35 17 45 -3 245 -27 275 -48 480 -60 582 l-9 84 34 50 c45
65 58 116 53 208 -7 118 -60 203 -155 248 l-33 16 0 248 c0 136 2 248 4 248 2
0 135 -65 295 -145 l291 -145 0 -103 c0 -71 5 -111 15 -131 20 -38 20 -39 -22
-93 -102 -134 -169 -359 -148 -499 8 -57 51 -104 96 -104 25 0 29 -4 34 -37
16 -102 38 -208 51 -245 20 -58 18 -64 -24 -76 -116 -35 -231 -166 -268 -307
-21 -76 -18 -211 6 -287 40 -129 135 -240 255 -297 72 -35 169 -55 228 -49
l42 5 29 -71 c66 -162 188 -328 337 -457 86 -74 143 -111 267 -174 l93 -47
-48 -22 c-51 -24 -174 -120 -232 -180 -19 -20 -39 -36 -43 -36 -32 0 -432
-169 -535 -226 -301 -166 -473 -357 -608 -673 -71 -167 -155 -524 -155 -656 1
-60 32 -119 81 -152 l43 -28 2110 0 2111 0 42 22 c88 47 109 112 87 263 -49
331 -150 621 -292 833 -159 238 -417 410 -867 577 -124 46 -147 58 -203 108
-81 73 -189 151 -219 158 -13 4 -23 9 -23 13 0 3 37 25 83 48 140 72 238 143
344 250 114 113 220 264 267 379 l27 69 82 1 c126 2 239 54 333 152 140 145
175 390 83 578 -33 70 -126 159 -201 194 l-64 30 24 73 c37 108 51 208 52 350
l0 127 28 0 c68 1 152 67 152 122 0 41 -79 148 -222 300 l-63 67 5 117 5 116
515 259 c288 145 525 271 538 285 14 16 22 38 22 60 0 58 -24 91 -93 126 -55
28 -736 359 -907 440 -62 30 -723 349 -1320 638 -274 133 -331 155 -375 143z
m261 -332 c126 -59 362 -172 524 -250 457 -221 460 -222 725 -349 490 -235
859 -413 863 -416 5 -6 -696 -368 -735 -380 -23 -7 -23 -6 -23 71 0 43 -4 93
-9 110 -36 124 -318 302 -665 419 -414 140 -913 174 -1396 97 -349 -55 -730
-202 -956 -369 -107 -79 -133 -126 -135 -243 -1 -112 6 -110 -165 -23 -394
201 -594 306 -594 312 0 7 419 211 780 380 102 48 365 174 585 280 220 106
528 255 685 331 157 75 285 138 286 138 1 1 104 -48 230 -108z m119 -846 c170
-20 410 -76 558 -131 222 -81 482 -235 498 -295 9 -30 11 -392 3 -413 -5 -12
-16 -8 -62 21 -95 61 -310 159 -442 201 -300 96 -710 145 -1046 123 -503 -31
-896 -140 -1187 -327 -37 -24 -70 -44 -72 -44 -3 0 -5 100 -5 223 l0 223 33
31 c79 75 305 192 499 259 196 67 394 110 613 133 137 14 470 12 610 -4z m37
-686 c544 -69 870 -221 1176 -549 l94 -100 -46 0 c-58 0 -95 -17 -102 -47 -4
-14 -2 -76 4 -139 13 -134 3 -244 -34 -372 -13 -45 -24 -84 -24 -87 0 -3 -4
-5 -9 -5 -4 0 -14 42 -20 93 -17 136 -49 288 -66 314 -9 12 -28 25 -43 29
-173 38 -283 105 -377 230 -72 95 -120 200 -152 328 -14 56 -29 107 -35 113
-15 18 -73 26 -96 14 -12 -6 -47 -46 -79 -89 -168 -227 -435 -409 -696 -476
-90 -23 -177 -38 -177 -30 0 2 11 29 25 60 34 77 115 329 122 381 5 35 2 45
-20 67 -27 27 -65 33 -97 16 -10 -5 -48 -48 -84 -94 -189 -242 -514 -459 -783
-523 -150 -35 -160 -40 -172 -77 -6 -17 -22 -103 -36 -191 -14 -88 -27 -164
-29 -170 -5 -15 -31 53 -50 127 -9 36 -21 114 -27 174 -12 135 -23 154 -84
154 -43 0 -45 1 -45 29 0 48 46 181 87 250 139 234 370 387 748 494 235 67
448 94 752 96 160 1 251 -4 375 -20z m-2591 -462 c67 -44 87 -139 43 -204 -36
-56 -116 -78 -174 -48 -92 48 -105 173 -25 244 45 39 105 42 156 8z m2893 -78
c93 -215 272 -391 458 -451 48 -15 73 -29 79 -43 29 -70 75 -520 66 -637 -5
-57 -3 -71 14 -92 20 -25 50 -33 84 -20 19 8 59 83 73 139 35 135 30 125 66
125 50 0 136 -49 173 -98 62 -82 78 -194 43 -303 -20 -61 -33 -82 -84 -134
-91 -92 -183 -116 -303 -78 -51 16 -54 16 -79 -3 -17 -12 -35 -43 -49 -84 -90
-264 -275 -481 -528 -618 -200 -109 -395 -160 -647 -169 -120 -4 -167 -2 -269
16 -473 81 -815 352 -951 755 -18 53 -35 86 -52 99 -24 18 -28 18 -78 3 -127
-38 -228 -9 -318 89 -88 95 -112 252 -58 367 43 92 132 158 210 158 l34 0 31
-98 c39 -125 65 -166 110 -170 21 -2 40 3 52 14 17 15 19 32 19 175 0 150 19
325 53 493 l12 60 98 28 c178 51 386 157 525 269 41 33 77 57 80 55 2 -3 -12
-41 -33 -84 -61 -130 -37 -172 95 -172 211 0 463 75 675 201 102 61 284 205
327 258 13 17 27 29 31 28 4 -1 23 -37 41 -78z m-2910 -491 c23 -202 57 -580
52 -585 -20 -20 -328 -5 -350 17 -10 10 3 58 91 335 30 94 65 211 79 260 14
50 27 96 29 103 3 7 21 12 43 12 l39 0 17 -142z m2649 -2210 c-98 -101 -355
-278 -402 -278 -25 0 -200 110 -283 178 -123 101 -170 155 -166 188 2 16 8 28
15 27 218 -43 391 -57 549 -43 125 11 263 33 307 49 20 8 22 5 25 -32 3 -36
-1 -45 -45 -89z m-762 -245 c52 -39 123 -88 158 -108 l63 -37 -163 -164 c-90
-90 -167 -164 -171 -164 -21 0 -241 312 -316 450 l-42 76 68 66 c37 36 86 79
110 96 l43 31 79 -87 c43 -48 120 -119 171 -159z m1039 201 c75 -60 150 -135
150 -151 0 -18 -53 -114 -134 -243 -52 -83 -113 -165 -193 -259 l-22 -26 -161
161 c-88 88 -160 165 -160 170 0 5 31 28 68 51 92 57 210 154 307 252 44 45
84 81 90 81 5 0 30 -16 55 -36z m538 -301 c104 -46 182 -85 201 -100 13 -10
-356 -346 -559 -509 -229 -184 -644 -464 -820 -554 l-37 -19 -99 58 c-434 252
-820 543 -1233 929 -59 55 -82 82 -76 91 9 16 236 125 342 165 67 26 93 27 93
6 0 -15 109 -198 178 -299 195 -287 397 -488 685 -685 87 -59 109 -64 161 -39
165 82 508 398 677 624 91 123 193 285 240 381 l22 46 51 -19 c28 -11 107 -45
174 -76z m-1067 -345 c-7 -35 -15 -132 -18 -216 l-6 -153 -58 -40 c-32 -21
-61 -39 -64 -39 -3 0 -33 18 -66 40 l-59 41 0 112 c0 62 -7 159 -15 217 l-15
104 77 78 78 78 79 -79 80 -80 -13 -63z m1559 14 c65 -71 143 -192 189 -294
68 -151 139 -413 156 -580 l7 -68 -375 0 c-349 0 -376 1 -381 18 -14 47 -28
424 -21 599 l7 192 141 130 141 129 38 -29 c20 -17 65 -60 98 -97z m-3167 20
c56 -53 118 -110 137 -126 l35 -29 0 -371 c0 -204 -3 -387 -8 -407 l-7 -36
-348 -1 c-191 -1 -359 1 -374 4 -25 5 -28 10 -28 43 0 49 34 236 60 331 76
275 200 498 351 632 35 32 67 58 72 58 4 0 53 -44 110 -98z m1185 -244 l-3
-26 -49 42 -49 43 44 41 44 41 8 -57 c4 -31 6 -69 5 -84z m652 63 c0 -9 -84
-91 -93 -91 -9 0 -9 62 -1 123 l7 46 43 -36 c24 -19 44 -38 44 -42z m-1360
-230 c237 -190 622 -455 774 -533 28 -15 21 -16 -115 -20 -208 -6 -776 -4
-783 3 -3 3 -1 86 5 185 6 99 8 241 4 318 -6 115 -5 137 7 130 7 -4 56 -42
108 -83z m2095 -453 l7 -98 -464 0 -463 1 54 32 c211 126 574 383 766 540 l80
66 6 -222 c3 -122 9 -266 14 -319z M2796 5450 c-67 -12 -188 -73 -220 -111
-69 -81 15 -159 101 -93 58 44 123 67 198 70 39 2 76 3 82 3 7 1 20 12 29 26
20 31 12 69 -19 89 -29 19 -110 26 -171 16z M4116 5449 c-42 -7 -76 -38 -76
-71 0 -10 12 -30 26 -45 22 -22 31 -24 68 -19 63 10 139 -11 207 -56 84 -56
128 -52 144 13 5 21 0 34 -26 63 -75 86 -223 136 -343 115z M2798 5020 c-74
-40 -114 -129 -105 -237 9 -121 79 -193 185 -193 60 0 83 9 129 53 69 65 84
218 30 310 -47 80 -156 110 -239 67z M4062 5023 c-121 -60 -138 -320 -26 -400
33 -23 105 -45 125 -39 8 2 26 7 41 10 37 8 85 51 109 99 61 118 16 290 -87
333 -44 19 -121 17 -162 -3z M3130 4320 c-13 -13 -20 -33 -20 -56 0 -62 117
-169 229 -209 137 -48 276 -40 408 25 89 44 167 119 179 173 9 40 -22 81 -65
85 -26 3 -39 -5 -84 -49 -28 -29 -77 -64 -107 -78 -48 -23 -68 -26 -155 -26
-90 0 -105 3 -153 28 -28 15 -75 50 -102 77 -56 56 -95 65 -130 30z"/>
</g>
</svg>
